<svg xmlns="http://www.w3.org/2000/svg" xmlns:xlink="http://www.w3.org/1999/xlink" preserveAspectRatio="xMidYMid" width="229.688" height="160" viewBox="0 0 22.969 16">
  <defs>
    <style>
      .cls-1 {
        fill: #b9c1c7;
        fill-rule: evenodd;
      }
    </style>
  </defs>
  <path d="M21.969,9.000 L3.373,9.000 L8.682,14.309 C9.070,14.697 9.070,15.326 8.682,15.713 C8.294,16.101 7.665,16.101 7.278,15.713 L0.319,8.755 C0.299,8.738 0.274,8.732 0.255,8.713 C0.225,8.683 0.224,8.639 0.199,8.606 C0.113,8.500 0.053,8.386 0.018,8.262 C0.005,8.214 -0.004,8.172 -0.010,8.123 C-0.050,7.825 0.027,7.515 0.255,7.287 C0.275,7.267 0.301,7.260 0.322,7.242 L7.278,0.287 C7.665,-0.101 8.294,-0.101 8.682,0.287 C9.070,0.674 9.070,1.303 8.682,1.691 L3.373,7.000 L21.969,7.000 C22.521,7.000 22.969,7.448 22.969,8.000 C22.969,8.552 22.521,9.000 21.969,9.000 Z" class="cls-1"/>
</svg>
